<?xml version="1.0" encoding="UTF-8"?>
<svg id="Capa_2" xmlns="http://www.w3.org/2000/svg" version="1.1" viewBox="0 0 686.97 511.99">
  <!-- Generator: Adobe Illustrator 30.5.1, SVG Export Plug-In . SVG Version: 2.1.4 Build 3)  -->
  <defs>
    <style>
      .st0 {
        stroke-dasharray: 2.86 2.86;
      }

      .st0, .st1, .st2, .st3, .st4, .st5, .st6, .st7, .st8, .st9, .st10, .st11, .st12, .st13, .st14 {
        stroke-miterlimit: 10;
      }

      .st0, .st1, .st3, .st4, .st5, .st6, .st7, .st8, .st9, .st10, .st11, .st12, .st13, .st14 {
        fill: none;
      }

      .st0, .st1, .st3, .st7, .st8 {
        stroke-width: .9px;
      }

      .st0, .st2, .st3, .st4, .st5, .st6, .st7, .st8, .st9, .st10, .st11, .st12, .st13, .st14 {
        stroke: #000;
      }

      .st1 {
        stroke: #fff;
        stroke-dasharray: 3;
      }

      .st2 {
        stroke-width: .95px;
      }

      .st3 {
        stroke-dasharray: 3.01 3.01;
      }

      .st4 {
        stroke-dasharray: 1 1;
      }

      .st15 {
        font-family: Verdana-Bold, Verdana;
        font-size: 9px;
        font-weight: 700;
      }

      .st5 {
        stroke-width: .83px;
      }

      .st6 {
        stroke-width: .89px;
      }

      .st8 {
        stroke-dasharray: 2.83 2.83;
      }

      .st9 {
        stroke-width: .9px;
      }

      .st10 {
        stroke-width: .9px;
      }

      .st11 {
        stroke-width: 1.1px;
      }

      .st12 {
        stroke-width: .9px;
      }

      .st14 {
        stroke-dasharray: 1 1;
      }
    </style>
  </defs>
  <line class="st12" x1="5.94" y1="113.82" x2="5.94" y2="242.12"/>
  <rect class="st10" x="14.95" y="184.65" width="38.72" height="113.41"/>
  <rect class="st10" x="20.84" y="230.28" width="27.68" height="22.15"/>
  <rect class="st10" x="76.97" y="229.33" width="15.27" height="23.29"/>
  <rect class="st10" x="126.61" y="220.74" width="33.03" height="40.48"/>
  <rect class="st9" x="192.35" y="8.49" width="127.64" height="491.82"/>
  <line class="st9" x1="42.54" y1="230.09" x2="42.54" y2="252.24"/>
  <line class="st9" x1="5.88" y1="241.8" x2="21.03" y2="241.8"/>
  <g>
    <line class="st7" x1="48.52" y1="241.67" x2="50.02" y2="241.67"/>
    <line class="st8" x1="52.86" y1="241.67" x2="74.12" y2="241.67"/>
    <line class="st7" x1="75.53" y1="241.67" x2="77.03" y2="241.67"/>
  </g>
  <g>
    <line class="st7" x1="92.43" y1="241.36" x2="93.93" y2="241.36"/>
    <line class="st0" x1="96.79" y1="241.36" x2="123.93" y2="241.36"/>
    <line class="st7" x1="125.36" y1="241.36" x2="126.86" y2="241.36"/>
  </g>
  <g>
    <line class="st7" x1="159.48" y1="241.35" x2="160.98" y2="241.35"/>
    <line class="st3" x1="163.99" y1="241.35" x2="204.61" y2="241.36"/>
    <line class="st7" x1="206.11" y1="241.36" x2="207.61" y2="241.36"/>
  </g>
  <g id="Capa_3">
    <line class="st6" x1="160.09" y1="241.4" x2="155.34" y2="241.4"/>
  </g>
  <g>
    <line class="st13" x1="314.91" y1="23.89" x2="314.91" y2="24.39"/>
    <line class="st14" x1="314.91" y1="25.39" x2="314.91" y2="487.99"/>
    <line class="st13" x1="314.91" y1="488.49" x2="314.91" y2="488.99"/>
  </g>
  <g>
    <line class="st13" x1="315.21" y1="488.58" x2="314.71" y2="488.58"/>
    <line class="st4" x1="313.71" y1="488.58" x2="38.5" y2="488.58"/>
    <line class="st13" x1="38" y1="488.58" x2="37.5" y2="488.58"/>
  </g>
  <line class="st11" x1="37.32" y1="471.23" x2="37.32" y2="507.5"/>
  <line class="st11" x1="33.5" y1="474.96" x2="33.5" y2="503.77"/>
  <line class="st11" x1="29.17" y1="479.17" x2="29.17" y2="499.56"/>
  <line class="st11" x1="24.85" y1="483.61" x2="24.85" y2="495.12"/>
  <line class="st11" x1="20.52" y1="487.8" x2="20.52" y2="490.94"/>
  <text class="st15" transform="translate(28.32 232.2) rotate(90) scale(.78 1)"><tspan x="0" y="0">kWh</tspan></text>
  <circle class="st6" cx="153.58" cy="241.5" r="1.53"/>
  <circle class="st6" cx="132.81" cy="241.48" r="1.53"/>
  <g id="Capa_31" data-name="Capa_3">
    <line class="st5" x1="131.62" y1="241.57" x2="127.53" y2="241.57"/>
  </g>
  <line class="st13" x1="134.58" y1="241.12" x2="152.24" y2="231.29"/>
  <polygon class="st2" points="144.68 235.23 144.74 233.4 148.38 231.43 150.09 232.31 144.68 235.23"/>
  <g>
    <path d="M135.1,255.81v-1.07l2.01-2.42c.17-.21.32-.41.44-.58.12-.17.21-.34.27-.51.06-.17.09-.35.09-.54,0-.22-.04-.41-.11-.56s-.18-.28-.31-.36c-.13-.08-.28-.13-.45-.13s-.33.04-.46.14c-.13.09-.23.22-.3.39-.07.17-.11.37-.11.61h-1.11c0-.47.08-.88.25-1.23.17-.35.4-.62.7-.81s.64-.29,1.04-.29.75.09,1.05.28c.3.18.53.44.7.76.17.32.25.69.25,1.11,0,.27-.04.54-.12.8-.08.26-.23.56-.44.89s-.51.72-.9,1.17l-.86,1.08v.05h2.4v1.23h-4.01Z"/>
    <path d="M142.03,255.9c-.39,0-.73-.09-1.04-.28-.3-.18-.54-.44-.72-.76-.18-.32-.27-.69-.28-1.1h1.13c0,.19.05.36.13.5.08.15.19.26.33.34.13.08.28.12.44.12.19,0,.36-.05.5-.16.15-.11.26-.26.34-.46s.13-.42.13-.68-.04-.49-.13-.69-.2-.36-.35-.47c-.15-.11-.32-.17-.52-.17-.17,0-.33.04-.49.13-.16.09-.28.2-.36.35l-1.04-.23.27-3.82h3.44v1.23h-2.47l-.14,1.84h.03c.1-.18.25-.32.45-.43.2-.11.42-.17.67-.17s.49.06.71.18.41.28.57.5c.16.21.28.47.37.76.09.29.13.61.13.96,0,.49-.09.92-.26,1.3-.18.38-.42.67-.74.89-.32.22-.68.33-1.1.33Z"/>
    <path d="M144.69,255.81l1.94-7.28h1.52l1.99,7.28h-1.29l-.91-3.51c-.11-.45-.22-.95-.33-1.49-.11-.54-.23-1.13-.36-1.76h.25c-.12.64-.24,1.23-.34,1.77s-.21,1.03-.31,1.48l-.88,3.51h-1.28ZM145.9,254.12v-1.17h3.03v1.17h-3.03Z"/>
  </g>
  <rect class="st1" x="639.62" y="425.98" width="39.71" height="61.1"/>
</svg>