<?xml version="1.0" encoding="UTF-8"?>
<svg id="Capa_1" xmlns="http://www.w3.org/2000/svg" xmlns:xlink="http://www.w3.org/1999/xlink" version="1.1" viewBox="0 0 322.51 505.19">
  <!-- Generator: Adobe Illustrator 30.4.0, SVG Export Plug-In . SVG Version: 2.1.4 Build 226)  -->
  <defs>
    <style>
      .st0, .st1, .st2, .st3, .st4, .st5, .st6, .st7, .st8, .st9, .st10, .st11, .st12 {
        fill: none;
      }

      .st1 {
        stroke-dasharray: 2.86 2.86;
      }

      .st1, .st2, .st3, .st4, .st5, .st6, .st7, .st8, .st9, .st10, .st11, .st12 {
        stroke: #000;
        stroke-miterlimit: 10;
      }

      .st1, .st7, .st12 {
        stroke-width: .9px;
      }

      .st13 {
        font-family: Verdana-Bold, Verdana;
        font-size: 7.02px;
        font-weight: 700;
      }

      .st2 {
        stroke-dasharray: 2.9 2.9;
        stroke-width: .89px;
      }

      .st3 {
        stroke-dasharray: 1 1;
      }

      .st4 {
        stroke-dasharray: 1 1;
      }

      .st5 {
        stroke-width: .83px;
      }

      .st6 {
        stroke-width: .89px;
      }

      .st8 {
        stroke-width: 1.1px;
      }

      .st9 {
        stroke-width: .95px;
      }

      .st10 {
        stroke-width: .9px;
      }

      .st12 {
        stroke-dasharray: 2.84 2.84;
      }

      .st14 {
        letter-spacing: .02em;
      }

      .st15 {
        clip-path: url(#clippath);
      }

      .st16 {
        letter-spacing: .01em;
      }
    </style>
    <clipPath id="clippath">
      <rect class="st0" x="-1.51" y="-5.29" width="686.97" height="511.99"/>
    </clipPath>
  </defs>
  <line class="st10" x1="4.43" y1="108.53" x2="4.43" y2="236.83"/>
  <rect class="st7" x="13.44" y="179.36" width="38.72" height="113.41"/>
  <rect class="st7" x="19.32" y="224.99" width="27.68" height="22.15"/>
  <rect class="st7" x="75.46" y="224.04" width="15.27" height="23.29"/>
  <rect class="st7" x="125.1" y="215.44" width="33.03" height="40.48"/>
  <rect class="st7" x="190.84" y="3.2" width="127.64" height="491.82"/>
  <line class="st7" x1="41.03" y1="224.8" x2="41.03" y2="246.95"/>
  <line class="st7" x1="4.37" y1="236.51" x2="19.52" y2="236.51"/>
  <line class="st7" x1="47.01" y1="236.38" x2="48.51" y2="236.38"/>
  <line class="st12" x1="51.34" y1="236.38" x2="72.6" y2="236.38"/>
  <line class="st7" x1="74.02" y1="236.38" x2="75.52" y2="236.38"/>
  <line class="st7" x1="90.92" y1="236.06" x2="92.42" y2="236.06"/>
  <line class="st1" x1="95.28" y1="236.06" x2="122.42" y2="236.06"/>
  <line class="st7" x1="123.85" y1="236.06" x2="125.35" y2="236.06"/>
  <line class="st7" x1="157.97" y1="236.06" x2="159.47" y2="236.06"/>
  <line class="st2" x1="162.43" y1="236.06" x2="207.9" y2="236.06"/>
  <line class="st6" x1="158.58" y1="236.1" x2="153.83" y2="236.1"/>
  <line class="st11" x1="313.39" y1="18.6" x2="313.39" y2="19.1"/>
  <line class="st3" x1="313.39" y1="20.1" x2="313.39" y2="482.69"/>
  <line class="st11" x1="313.39" y1="483.19" x2="313.39" y2="483.69"/>
  <line class="st11" x1="313.69" y1="483.29" x2="313.19" y2="483.29"/>
  <line class="st4" x1="312.19" y1="483.29" x2="36.99" y2="483.29"/>
  <line class="st11" x1="36.49" y1="483.29" x2="35.99" y2="483.29"/>
  <line class="st8" x1="35.81" y1="465.94" x2="35.81" y2="502.21"/>
  <line class="st8" x1="31.99" y1="469.67" x2="31.99" y2="498.48"/>
  <line class="st8" x1="27.66" y1="473.88" x2="27.66" y2="494.27"/>
  <line class="st8" x1="23.33" y1="478.32" x2="23.33" y2="489.83"/>
  <line class="st8" x1="19.01" y1="482.5" x2="19.01" y2="485.64"/>
  <text class="st13" transform="translate(26.8 226.91) rotate(90) scale(1 1.28)"><tspan class="st14" x="0" y="0">k</tspan><tspan class="st16" x="4.85" y="0">W</tspan><tspan x="12.86" y="0">h</tspan></text>
  <g class="st15">
    <path class="st6" d="M153.59,236.21c0,.84-.68,1.53-1.53,1.53s-1.53-.68-1.53-1.53.68-1.53,1.53-1.53,1.53.68,1.53,1.53Z"/>
    <path class="st6" d="M132.83,236.18c0,.84-.68,1.53-1.53,1.53s-1.53-.68-1.53-1.53.68-1.53,1.53-1.53,1.53.68,1.53,1.53Z"/>
    <line class="st5" x1="130.11" y1="236.28" x2="126.02" y2="236.28"/>
    <line class="st11" x1="133.07" y1="235.82" x2="150.73" y2="225.99"/>
    <polygon points="143.17 229.94 143.23 228.1 146.86 226.13 148.58 227.02 143.17 229.94"/>
    <polygon class="st9" points="143.17 229.94 143.23 228.1 146.86 226.13 148.58 227.02 143.17 229.94"/>
  </g>
</svg>